{
  "accessors": [
    {
      "bufferView": 2,
      "componentType": 5126,
      "count": 3120,
      "max": [
        14.645150184631348,
        14.6939115524292,
        0.35063204169273376
      ],
      "min": [
        -14.511685371398926,
        -14.686060905456543,
        -2.0881805419921875
      ],
      "type": "VEC3"
    },
    {
      "bufferView": 2,
      "byteOffset": 37440,
      "componentType": 5126,
      "count": 3120,
      "max": [
        0.9964917302131653,
        0.9659762978553772,
        0.9788143038749695
      ],
      "min": [
        -0.9876221418380737,
        -0.9869282245635986,
        -0.9760446548461914
      ],
      "type": "VEC3"
    },
    {
      "bufferView": 1,
      "componentType": 5126,
      "count": 3120,
      "max": [
        0.9960576295852661,
        0.3944692015647888
      ],
      "min": [
        0.003942340612411499,
        0.003990769386291504
      ],
      "type": "VEC2"
    },
    {
      "bufferView": 0,
      "componentType": 5125,
      "count": 11940,
      "type": "SCALAR"
    },
    {
      "bufferView": 2,
      "byteOffset": 74880,
      "componentType": 5126,
      "count": 533,
      "max": [
        14.70533275604248,
        14.62569808959961,
        4.929805755615234
      ],
      "min": [
        -14.715106964111328,
        -14.638516426086426,
        -4.929805278778076
      ],
      "type": "VEC3"
    },
    {
      "bufferView": 2,
      "byteOffset": 81276,
      "componentType": 5126,
      "count": 533,
      "max": [
        0.9990482926368713,
        0.9990483522415161,
        7.90896365288063e-07
      ],
      "min": [
        -0.9990482926368713,
        -0.9990483522415161,
        -1.0
      ],
      "type": "VEC3"
    },
    {
      "bufferView": 1,
      "byteOffset": 24960,
      "componentType": 5126,
      "count": 533,
      "max": [
        0.9218168258666992,
        0.9960576891899109
      ],
      "min": [
        0.004055611789226532,
        0.00391542911529541
      ],
      "type": "VEC2"
    },
    {
      "bufferView": 0,
      "byteOffset": 47760,
      "componentType": 5125,
      "count": 1776,
      "type": "SCALAR"
    },
    {
      "bufferView": 2,
      "byteOffset": 87672,
      "componentType": 5126,
      "count": 164,
      "max": [
        9.466771125793457,
        11.232159614562988,
        -0.5202987194061279
      ],
      "min": [
        -6.561221122741699,
        -5.975424766540527,
        -1.029524803161621
      ],
      "type": "VEC3"
    },
    {
      "bufferView": 2,
      "byteOffset": 89640,
      "componentType": 5126,
      "count": 164,
      "max": [
        0.5555706024169922,
        9.201023942750908e-08,
        1.0
      ],
      "min": [
        -0.555570125579834,
        -0.9978589415550232,
        0.0
      ],
      "type": "VEC3"
    },
    {
      "bufferView": 1,
      "byteOffset": 29224,
      "componentType": 5126,
      "count": 164,
      "max": [
        0.8100473284721375,
        0.8910506963729858
      ],
      "min": [
        0.003917500376701355,
        0.0039688050746917725
      ],
      "type": "VEC2"
    },
    {
      "bufferView": 0,
      "byteOffset": 54864,
      "componentType": 5125,
      "count": 318,
      "type": "SCALAR"
    },
    {
      "bufferView": 2,
      "byteOffset": 91608,
      "componentType": 5126,
      "count": 776,
      "max": [
        13.347945213317871,
        7.991079330444336,
        1.029524326324463
      ],
      "min": [
        -13.322361946105957,
        -11.247078895568848,
        -0.743054211139679
      ],
      "type": "VEC3"
    },
    {
      "bufferView": 2,
      "byteOffset": 100920,
      "componentType": 5126,
      "count": 776,
      "max": [
        0.9999258518218994,
        0.9999994039535522,
        0.9999998807907104
      ],
      "min": [
        -0.9999351501464844,
        -0.9999999403953552,
        -8.4964618451977e-08
      ],
      "type": "VEC3"
    },
    {
      "bufferView": 1,
      "byteOffset": 30536,
      "componentType": 5126,
      "count": 776,
      "max": [
        0.9958837032318115,
        0.7951920628547668
      ],
      "min": [
        0.814104437828064,
        0.003907449543476105
      ],
      "type": "VEC2"
    },
    {
      "bufferView": 0,
      "byteOffset": 56136,
      "componentType": 5125,
      "count": 1140,
      "type": "SCALAR"
    }
  ],
  "asset": {
    "extras": {
      "author": "Salim (https://sketchfab.com/Salim.Nad)",
      "license": "CC-BY-4.0 (http://creativecommons.org/licenses/by/4.0/)",
      "source": "https://sketchfab.com/3d-models/vr-theater-a5e63c0b2cc240949b5adcaf07d4d105",
      "title": "VR theater"
    },
    "generator": "Sketchfab-16.12.0",
    "version": "2.0"
  },
  "bufferViews": [
    {
      "buffer": 0,
      "byteLength": 60696,
      "name": "floatBufferViews",
      "target": 34963
    },
    {
      "buffer": 0,
      "byteLength": 36744,
      "byteOffset": 60696,
      "byteStride": 8,
      "name": "floatBufferViews",
      "target": 34962
    },
    {
      "buffer": 0,
      "byteLength": 110232,
      "byteOffset": 97440,
      "byteStride": 12,
      "name": "floatBufferViews",
      "target": 34962
    }
  ],
  "buffers": [
    {
      "byteLength": 207672,
      "uri": "scene.bin"
    }
  ],
  "images": [
    {
      "uri": "textures/vray_03_-_Default_baseColor.jpeg"
    },
    {
      "uri": "textures/Material_baseColor.jpeg"
    },
    {
      "uri": "textures/vray_07_-_Default_baseColor.jpeg"
    },
    {
      "uri": "textures/vray_09_-_Default_baseColor.jpeg"
    }
  ],
  "materials": [
    {
      "doubleSided": true,
      "name": "vray_03_-_Default",
      "pbrMetallicRoughness": {
        "baseColorTexture": {
          "index": 0
        },
        "metallicFactor": 0.0,
        "roughnessFactor": 0.552786
      }
    },
    {
      "doubleSided": true,
      "name": "Material",
      "pbrMetallicRoughness": {
        "baseColorTexture": {
          "index": 1
        },
        "metallicFactor": 0.0,
        "roughnessFactor": 0.5
      }
    },
    {
      "doubleSided": true,
      "name": "vray_07_-_Default",
      "pbrMetallicRoughness": {
        "baseColorTexture": {
          "index": 2
        },
        "metallicFactor": 0.0,
        "roughnessFactor": 0.552786
      }
    },
    {
      "doubleSided": true,
      "name": "vray_09_-_Default",
      "pbrMetallicRoughness": {
        "baseColorTexture": {
          "index": 3
        },
        "metallicFactor": 0.0,
        "roughnessFactor": 0.552786
      }
    }
  ],
  "meshes": [
    {
      "name": "stairs_vray_03 - Default_0",
      "primitives": [
        {
          "attributes": {
            "NORMAL": 1,
            "POSITION": 0,
            "TEXCOORD_0": 2
          },
          "indices": 3,
          "material": 0,
          "mode": 4
        }
      ]
    },
    {
      "name": "wall_ext_Material_0",
      "primitives": [
        {
          "attributes": {
            "NORMAL": 5,
            "POSITION": 4,
            "TEXCOORD_0": 6
          },
          "indices": 7,
          "material": 1,
          "mode": 4
        }
      ]
    },
    {
      "name": "floor_vray_07 - Default_0",
      "primitives": [
        {
          "attributes": {
            "NORMAL": 9,
            "POSITION": 8,
            "TEXCOORD_0": 10
          },
          "indices": 11,
          "material": 2,
          "mode": 4
        }
      ]
    },
    {
      "name": "white_stairs_vray_09 - Default_0",
      "primitives": [
        {
          "attributes": {
            "NORMAL": 13,
            "POSITION": 12,
            "TEXCOORD_0": 14
          },
          "indices": 15,
          "material": 3,
          "mode": 4
        }
      ]
    }
  ],
  "nodes": [
    {
      "children": [
        1
      ],
      "matrix": [
        1.0,
        0.0,
        0.0,
        0.0,
        0.0,
        2.220446049250313e-16,
        -1.0,
        0.0,
        0.0,
        1.0,
        2.220446049250313e-16,
        0.0,
        0.0,
        0.0,
        0.0,
        1.0
      ],
      "name": "Sketchfab_model"
    },
    {
      "children": [
        2
      ],
      "matrix": [
        0.009999999776482582,
        0.0,
        0.0,
        0.0,
        0.0,
        0.0,
        0.009999999776482582,
        0.0,
        0.0,
        -0.009999999776482582,
        0.0,
        0.0,
        0.0,
        0.0,
        0.0,
        1.0
      ],
      "name": "teatre.fbx"
    },
    {
      "children": [
        3,
        5,
        7,
        9
      ],
      "name": "RootNode"
    },
    {
      "children": [
        4
      ],
      "matrix": [
        100.0,
        0.0,
        0.0,
        0.0,
        0.0,
        -1.629206793918314e-05,
        -99.99999999999868,
        0.0,
        0.0,
        99.99999999999868,
        -1.629206793918314e-05,
        0.0,
        0.00011769883712986484,
        208.81800842285156,
        -8.098889520624653e-05,
        1.0
      ],
      "name": "stairs"
    },
    {
      "mesh": 0,
      "name": "stairs_vray_03 - Default_0"
    },
    {
      "children": [
        6
      ],
      "matrix": [
        100.0,
        0.0,
        0.0,
        0.0,
        -0.0,
        -1.629206793918314e-05,
        -99.99999999999868,
        0.0,
        0.0,
        99.99999999999868,
        -1.629206793918314e-05,
        0.0,
        -11.806256294250488,
        263.2754821777344,
        -1.0332250595092773,
        1.0
      ],
      "name": "wall_ext"
    },
    {
      "mesh": 1,
      "name": "wall_ext_Material_0"
    },
    {
      "children": [
        8
      ],
      "matrix": [
        100.0,
        0.0,
        0.0,
        0.0,
        -0.0,
        -1.629206793918314e-05,
        -99.99999999999868,
        0.0,
        0.0,
        99.99999999999868,
        -1.629206793918314e-05,
        0.0,
        -148.55702209472656,
        102.95243072509766,
        204.42213439941406,
        1.0
      ],
      "name": "floor"
    },
    {
      "mesh": 2,
      "name": "floor_vray_07 - Default_0"
    },
    {
      "children": [
        10
      ],
      "matrix": [
        100.0,
        0.0,
        0.0,
        0.0,
        -0.0,
        -1.629206793918314e-05,
        -99.99999999999868,
        0.0,
        0.0,
        99.99999999999868,
        -1.629206793918314e-05,
        0.0,
        -148.55702209472656,
        102.95243072509766,
        204.42213439941406,
        1.0
      ],
      "name": "white_stairs"
    },
    {
      "mesh": 3,
      "name": "white_stairs_vray_09 - Default_0"
    }
  ],
  "samplers": [
    {
      "magFilter": 9729,
      "minFilter": 9987,
      "wrapS": 10497,
      "wrapT": 10497
    }
  ],
  "scene": 0,
  "scenes": [
    {
      "name": "Sketchfab_Scene",
      "nodes": [
        0
      ]
    }
  ],
  "textures": [
    {
      "sampler": 0,
      "source": 0
    },
    {
      "sampler": 0,
      "source": 1
    },
    {
      "sampler": 0,
      "source": 2
    },
    {
      "sampler": 0,
      "source": 3
    }
  ]
}
